<?xml version="1.0"?>
<!-- Generated by SVGo -->
<svg width="124.302mm" height="86.202mm"
     viewBox="0.000 0.000 124.302 86.202"
     xmlns="http://www.w3.org/2000/svg" 
     xmlns:xlink="http://www.w3.org/1999/xlink">
<polygon points="116.302,5.001 116.537,5.010 116.771,5.037 117.002,5.083 117.229,5.147 117.450,5.229 117.663,5.327 117.869,5.443 118.065,5.573 118.250,5.719 118.423,5.879 118.583,6.052 118.729,6.237 118.859,6.433 118.975,6.639 119.073,6.852 119.155,7.073 119.219,7.300 119.265,7.531 119.292,7.765 119.302,8.001 119.302,78.202 119.292,78.437 119.265,78.671 119.219,78.902 119.155,79.129 119.073,79.350 118.975,79.563 118.859,79.769 118.729,79.965 118.583,80.150 118.423,80.323 118.250,80.483 118.065,80.629 117.869,80.759 117.663,80.875 117.450,80.973 117.229,81.055 117.002,81.119 116.771,81.165 116.537,81.192 116.301,81.202 8.001,81.202 7.765,81.192 7.531,81.165 7.300,81.119 7.073,81.055 6.852,80.973 6.639,80.875 6.433,80.759 6.237,80.629 6.052,80.483 5.879,80.323 5.719,80.150 5.573,79.965 5.443,79.769 5.327,79.563 5.229,79.350 5.147,79.129 5.083,78.902 5.037,78.671 5.010,78.437 5.000,78.201 5.001,8.001 5.010,7.765 5.037,7.531 5.083,7.300 5.147,7.073 5.229,6.852 5.327,6.639 5.443,6.433 5.573,6.237 5.719,6.052 5.879,5.879 6.052,5.719 6.237,5.573 6.433,5.443 6.639,5.327 6.852,5.229 7.073,5.147 7.300,5.083 7.531,5.037 7.765,5.010 8.001,5.000" style="fill:none;stroke-width:0.050000mm;stroke:black"/>
<polygon points="93.251,64.676 93.251,69.376 91.726,69.376 91.726,66.146 90.001,66.146 90.001,65.225 86.701,65.225 86.701,66.146 84.976,66.146 84.976,69.376 84.151,69.376 84.151,72.176 84.976,72.176 84.976,78.446 86.701,78.446 86.701,79.426 90.001,79.426 90.001,78.446 91.726,78.446 91.726,73.976 93.251,73.976 93.251,78.676 107.251,78.676 107.251,73.976 108.776,73.976 108.776,78.446 110.501,78.446 110.501,79.426 113.801,79.426 113.801,78.446 115.526,78.446 115.526,72.176 116.351,72.176 116.351,69.376 115.526,69.376 115.526,66.146 113.801,66.146 113.801,65.225 110.501,65.225 110.501,66.146 108.776,66.146 108.776,69.376 107.251,69.376 107.251,64.676" style="fill:none;stroke-width:0.050000mm;stroke:black"/>
<polygon points="64.676,64.676 64.676,78.676 78.676,78.676 78.676,64.676" style="fill:none;stroke-width:0.050000mm;stroke:black"/>
<polygon points="45.626,64.676 45.626,78.676 59.626,78.676 59.626,64.676" style="fill:none;stroke-width:0.050000mm;stroke:black"/>
<polygon points="26.576,64.676 26.576,78.676 40.576,78.676 40.576,64.676" style="fill:none;stroke-width:0.050000mm;stroke:black"/>
<polygon points="7.526,64.676 7.526,78.676 21.526,78.676 21.526,64.676" style="fill:none;stroke-width:0.050000mm;stroke:black"/>
<polygon points="102.775,45.626 102.775,59.626 116.775,59.626 116.775,45.626" style="fill:none;stroke-width:0.050000mm;stroke:black"/>
<polygon points="83.726,45.626 83.726,59.626 97.726,59.626 97.726,45.626" style="fill:none;stroke-width:0.050000mm;stroke:black"/>
<polygon points="64.676,45.626 64.676,59.626 78.676,59.626 78.676,45.626" style="fill:none;stroke-width:0.050000mm;stroke:black"/>
<polygon points="45.626,45.626 45.626,59.626 59.626,59.626 59.626,45.626" style="fill:none;stroke-width:0.050000mm;stroke:black"/>
<polygon points="26.576,45.626 26.576,59.626 40.576,59.626 40.576,45.626" style="fill:none;stroke-width:0.050000mm;stroke:black"/>
<polygon points="7.526,45.626 7.526,59.626 21.526,59.626 21.526,45.626" style="fill:none;stroke-width:0.050000mm;stroke:black"/>
<polygon points="102.775,26.576 102.775,40.576 116.775,40.576 116.775,26.576" style="fill:none;stroke-width:0.050000mm;stroke:black"/>
<polygon points="83.726,26.576 83.726,40.576 97.726,40.576 97.726,26.576" style="fill:none;stroke-width:0.050000mm;stroke:black"/>
<polygon points="64.676,26.576 64.676,40.576 78.676,40.576 78.676,26.576" style="fill:none;stroke-width:0.050000mm;stroke:black"/>
<polygon points="45.626,26.576 45.626,40.576 59.626,40.576 59.626,26.576" style="fill:none;stroke-width:0.050000mm;stroke:black"/>
<polygon points="26.576,26.576 26.576,40.576 40.576,40.576 40.576,26.576" style="fill:none;stroke-width:0.050000mm;stroke:black"/>
<polygon points="7.526,26.576 7.526,40.576 21.526,40.576 21.526,26.576" style="fill:none;stroke-width:0.050000mm;stroke:black"/>
<polygon points="102.775,7.526 102.775,21.526 116.775,21.526 116.775,7.526" style="fill:none;stroke-width:0.050000mm;stroke:black"/>
<polygon points="83.726,7.526 83.726,21.526 97.726,21.526 97.726,7.526" style="fill:none;stroke-width:0.050000mm;stroke:black"/>
<polygon points="64.676,7.526 64.676,21.526 78.676,21.526 78.676,7.526" style="fill:none;stroke-width:0.050000mm;stroke:black"/>
<polygon points="45.626,7.526 45.626,21.526 59.626,21.526 59.626,7.526" style="fill:none;stroke-width:0.050000mm;stroke:black"/>
<polygon points="26.576,7.526 26.576,21.526 40.576,21.526 40.576,7.526" style="fill:none;stroke-width:0.050000mm;stroke:black"/>
<polygon points="7.526,7.526 7.526,21.526 21.526,21.526 21.526,7.526" style="fill:none;stroke-width:0.050000mm;stroke:black"/>
</svg>
