  0
SECTION
  2
HEADER
  9
$ACADVER
  1
AC1009
  9
$EXTMIN
 10
0.0
 20
0.0
 30
0.0
  9
$EXTMAX
 10
1000.0
 20
1000.0
 30
0.0
  9
$FILLMODE
 70
 0
  9
$SPLFRAME
 70
 1
  0
ENDSEC
  0
SECTION
  2
TABLES
  0
TABLE
  2
LAYER
 70
1
  0
LAYER
  2
0
 70
     0
 62
     7
  6
CONTINUOUS
  0
ENDTAB
  0
ENDSEC
  0
SECTION
  2
ENTITIES
  0
LINE
  8
0
 62
     0
 10
111.397
 20
76.4575
 30
0.0
 11
111.632
 21
76.448
 31
0.0
  0
LINE
  8
0
 62
     0
 10
111.632
 20
76.448
 30
0.0
 11
111.865
 21
76.4219
 31
0.0
  0
LINE
  8
0
 62
     0
 10
111.865
 20
76.4219
 30
0.0
 11
112.097
 21
76.375
 31
0.0
  0
LINE
  8
0
 62
     0
 10
112.097
 20
76.375
 30
0.0
 11
112.324
 21
76.3115
 31
0.0
  0
LINE
  8
0
 62
     0
 10
112.324
 20
76.3115
 30
0.0
 11
112.544
 21
76.2289
 31
0.0
  0
LINE
  8
0
 62
     0
 10
112.544
 20
76.2289
 30
0.0
 11
112.758
 21
76.1312
 31
0.0
  0
LINE
  8
0
 62
     0
 10
112.758
 20
76.1312
 30
0.0
 11
112.963
 21
76.0155
 31
0.0
  0
LINE
  8
0
 62
     0
 10
112.963
 20
76.0155
 30
0.0
 11
113.159
 21
75.8857
 31
0.0
  0
LINE
  8
0
 62
     0
 10
113.159
 20
75.8857
 30
0.0
 11
113.345
 21
75.7396
 31
0.0
  0
LINE
  8
0
 62
     0
 10
113.345
 20
75.7396
 30
0.0
 11
113.517
 21
75.5798
 31
0.0
  0
LINE
  8
0
 62
     0
 10
113.517
 20
75.5798
 30
0.0
 11
113.677
 21
75.4063
 31
0.0
  0
LINE
  8
0
 62
     0
 10
113.677
 20
75.4063
 30
0.0
 11
113.823
 21
75.2217
 31
0.0
  0
LINE
  8
0
 62
     0
 10
113.823
 20
75.2217
 30
0.0
 11
113.954
 21
75.026
 31
0.0
  0
LINE
  8
0
 62
     0
 10
113.954
 20
75.026
 30
0.0
 11
114.07
 21
74.8192
 31
0.0
  0
LINE
  8
0
 62
     0
 10
114.07
 20
74.8192
 30
0.0
 11
114.168
 21
74.6054
 31
0.0
  0
LINE
  8
0
 62
     0
 10
114.168
 20
74.6054
 30
0.0
 11
114.249
 21
74.385
 31
0.0
  0
LINE
  8
0
 62
     0
 10
114.249
 20
74.385
 30
0.0
 11
114.314
 21
74.1578
 31
0.0
  0
LINE
  8
0
 62
     0
 10
114.314
 20
74.1578
 30
0.0
 11
114.359
 21
73.9278
 31
0.0
  0
LINE
  8
0
 62
     0
 10
114.359
 20
73.9278
 30
0.0
 11
114.387
 21
73.6935
 31
0.0
  0
LINE
  8
0
 62
     0
 10
114.387
 20
73.6935
 30
0.0
 11
114.396
 21
73.4579
 31
0.0
  0
LINE
  8
0
 62
     0
 10
114.396
 20
73.4579
 30
0.0
 11
114.396
 21
3.2563
 31
0.0
  0
LINE
  8
0
 62
     0
 10
114.396
 20
3.2563
 30
0.0
 11
114.387
 21
3.02066
 31
0.0
  0
LINE
  8
0
 62
     0
 10
114.387
 20
3.02066
 30
0.0
 11
114.359
 21
2.78777
 31
0.0
  0
LINE
  8
0
 62
     0
 10
114.359
 20
2.78777
 30
0.0
 11
114.314
 21
2.55626
 31
0.0
  0
LINE
  8
0
 62
     0
 10
114.314
 20
2.55626
 30
0.0
 11
114.249
 21
2.32888
 31
0.0
  0
LINE
  8
0
 62
     0
 10
114.249
 20
2.32888
 30
0.0
 11
114.168
 21
2.1084
 31
0.0
  0
LINE
  8
0
 62
     0
 10
114.168
 20
2.1084
 30
0.0
 11
114.07
 21
1.8948
 31
0.0
  0
LINE
  8
0
 62
     0
 10
114.07
 20
1.8948
 30
0.0
 11
113.954
 21
1.68947
 31
0.0
  0
LINE
  8
0
 62
     0
 10
113.954
 20
1.68947
 30
0.0
 11
113.823
 21
1.4938
 31
0.0
  0
LINE
  8
0
 62
     0
 10
113.823
 20
1.4938
 30
0.0
 11
113.677
 21
1.30776
 31
0.0
  0
LINE
  8
0
 62
     0
 10
113.677
 20
1.30776
 30
0.0
 11
113.517
 21
1.1355
 31
0.0
  0
LINE
  8
0
 62
     0
 10
113.517
 20
1.1355
 30
0.0
 11
113.345
 21
0.975653
 31
0.0
  0
LINE
  8
0
 62
     0
 10
113.345
 20
0.975653
 30
0.0
 11
113.159
 21
0.829578
 31
0.0
  0
LINE
  8
0
 62
     0
 10
113.159
 20
0.829578
 30
0.0
 11
112.963
 21
0.698666
 31
0.0
  0
LINE
  8
0
 62
     0
 10
112.963
 20
0.698666
 30
0.0
 11
112.758
 21
0.582909
 31
0.0
  0
LINE
  8
0
 62
     0
 10
112.758
 20
0.582909
 30
0.0
 11
112.544
 21
0.485069
 31
0.0
  0
LINE
  8
0
 62
     0
 10
112.544
 20
0.485069
 30
0.0
 11
112.324
 21
0.403765
 31
0.0
  0
LINE
  8
0
 62
     0
 10
112.324
 20
0.403765
 30
0.0
 11
112.097
 21
0.338998
 31
0.0
  0
LINE
  8
0
 62
     0
 10
112.097
 20
0.338998
 30
0.0
 11
111.865
 21
0.293522
 31
0.0
  0
LINE
  8
0
 62
     0
 10
111.865
 20
0.293522
 30
0.0
 11
111.632
 21
0.265961
 31
0.0
  0
LINE
  8
0
 62
     0
 10
111.632
 20
0.265961
 30
0.0
 11
111.395
 21
0.256315
 31
0.0
  0
LINE
  8
0
 62
     0
 10
111.395
 20
0.256315
 30
0.0
 11
3.09507
 21
0.256315
 31
0.0
  0
LINE
  8
0
 62
     0
 10
3.09507
 20
0.256315
 30
0.0
 11
2.85943
 21
0.265961
 31
0.0
  0
LINE
  8
0
 62
     0
 10
2.85943
 20
0.265961
 30
0.0
 11
2.62516
 21
0.293522
 31
0.0
  0
LINE
  8
0
 62
     0
 10
2.62516
 20
0.293522
 30
0.0
 11
2.39503
 21
0.338998
 31
0.0
  0
LINE
  8
0
 62
     0
 10
2.39503
 20
0.338998
 30
0.0
 11
2.16765
 21
0.403765
 31
0.0
  0
LINE
  8
0
 62
     0
 10
2.16765
 20
0.403765
 30
0.0
 11
1.94717
 21
0.485069
 31
0.0
  0
LINE
  8
0
 62
     0
 10
1.94717
 20
0.485069
 30
0.0
 11
1.73357
 21
0.582909
 31
0.0
  0
LINE
  8
0
 62
     0
 10
1.73357
 20
0.582909
 30
0.0
 11
1.52687
 21
0.698666
 31
0.0
  0
LINE
  8
0
 62
     0
 10
1.52687
 20
0.698666
 30
0.0
 11
1.33119
 21
0.829578
 31
0.0
  0
LINE
  8
0
 62
     0
 10
1.33119
 20
0.829578
 30
0.0
 11
1.14653
 21
0.975653
 31
0.0
  0
LINE
  8
0
 62
     0
 10
1.14653
 20
0.975653
 30
0.0
 11
0.972894
 21
1.1355
 31
0.0
  0
LINE
  8
0
 62
     0
 10
0.972894
 20
1.1355
 30
0.0
 11
0.813043
 21
1.30776
 31
0.0
  0
LINE
  8
0
 62
     0
 10
0.813043
 20
1.30776
 30
0.0
 11
0.666972
 21
1.4938
 31
0.0
  0
LINE
  8
0
 62
     0
 10
0.666972
 20
1.4938
 30
0.0
 11
0.537436
 21
1.68947
 31
0.0
  0
LINE
  8
0
 62
     0
 10
0.537436
 20
1.68947
 30
0.0
 11
0.421679
 21
1.8948
 31
0.0
  0
LINE
  8
0
 62
     0
 10
0.421679
 20
1.8948
 30
0.0
 11
0.323839
 21
2.1084
 31
0.0
  0
LINE
  8
0
 62
     0
 10
0.323839
 20
2.1084
 30
0.0
 11
0.241157
 21
2.32888
 31
0.0
  0
LINE
  8
0
 62
     0
 10
0.241157
 20
2.32888
 30
0.0
 11
0.177767
 21
2.55626
 31
0.0
  0
LINE
  8
0
 62
     0
 10
0.177767
 20
2.55626
 30
0.0
 11
0.130914
 21
2.78777
 31
0.0
  0
LINE
  8
0
 62
     0
 10
0.130914
 20
2.78777
 30
0.0
 11
0.104731
 21
3.02066
 31
0.0
  0
LINE
  8
0
 62
     0
 10
0.104731
 20
3.02066
 30
0.0
 11
0.0950846
 21
3.25768
 31
0.0
  0
LINE
  8
0
 62
     0
 10
0.0950846
 20
3.25768
 30
0.0
 11
0.0950846
 21
73.4579
 31
0.0
  0
LINE
  8
0
 62
     0
 10
0.0950846
 20
73.4579
 30
0.0
 11
0.104731
 21
73.6935
 31
0.0
  0
LINE
  8
0
 62
     0
 10
0.104731
 20
73.6935
 30
0.0
 11
0.130914
 21
73.9278
 31
0.0
  0
LINE
  8
0
 62
     0
 10
0.130914
 20
73.9278
 30
0.0
 11
0.177767
 21
74.1578
 31
0.0
  0
LINE
  8
0
 62
     0
 10
0.177767
 20
74.1578
 30
0.0
 11
0.241157
 21
74.385
 31
0.0
  0
LINE
  8
0
 62
     0
 10
0.241157
 20
74.385
 30
0.0
 11
0.323839
 21
74.6054
 31
0.0
  0
LINE
  8
0
 62
     0
 10
0.323839
 20
74.6054
 30
0.0
 11
0.421679
 21
74.8192
 31
0.0
  0
LINE
  8
0
 62
     0
 10
0.421679
 20
74.8192
 30
0.0
 11
0.537436
 21
75.026
 31
0.0
  0
LINE
  8
0
 62
     0
 10
0.537436
 20
75.026
 30
0.0
 11
0.666972
 21
75.2217
 31
0.0
  0
LINE
  8
0
 62
     0
 10
0.666972
 20
75.2217
 30
0.0
 11
0.813043
 21
75.4063
 31
0.0
  0
LINE
  8
0
 62
     0
 10
0.813043
 20
75.4063
 30
0.0
 11
0.972894
 21
75.5798
 31
0.0
  0
LINE
  8
0
 62
     0
 10
0.972894
 20
75.5798
 30
0.0
 11
1.14653
 21
75.7396
 31
0.0
  0
LINE
  8
0
 62
     0
 10
1.14653
 20
75.7396
 30
0.0
 11
1.33119
 21
75.8857
 31
0.0
  0
LINE
  8
0
 62
     0
 10
1.33119
 20
75.8857
 30
0.0
 11
1.52687
 21
76.0155
 31
0.0
  0
LINE
  8
0
 62
     0
 10
1.52687
 20
76.0155
 30
0.0
 11
1.73357
 21
76.1312
 31
0.0
  0
LINE
  8
0
 62
     0
 10
1.73357
 20
76.1312
 30
0.0
 11
1.94717
 21
76.2289
 31
0.0
  0
LINE
  8
0
 62
     0
 10
1.94717
 20
76.2289
 30
0.0
 11
2.16765
 21
76.3115
 31
0.0
  0
LINE
  8
0
 62
     0
 10
2.16765
 20
76.3115
 30
0.0
 11
2.39503
 21
76.375
 31
0.0
  0
LINE
  8
0
 62
     0
 10
2.39503
 20
76.375
 30
0.0
 11
2.62516
 21
76.4219
 31
0.0
  0
LINE
  8
0
 62
     0
 10
2.62516
 20
76.4219
 30
0.0
 11
2.85943
 21
76.448
 31
0.0
  0
LINE
  8
0
 62
     0
 10
2.85943
 20
76.448
 30
0.0
 11
3.09507
 21
76.4575
 31
0.0
  0
LINE
  8
0
 62
     0
 10
3.09507
 20
76.4575
 30
0.0
 11
111.397
 21
76.4575
 31
0.0
  0
LINE
  8
0
 62
     0
 10
88.3461
 20
16.7817
 30
0.0
 11
88.3461
 21
12.0826
 31
0.0
  0
LINE
  8
0
 62
     0
 10
88.3461
 20
12.0826
 30
0.0
 11
86.8204
 21
12.0826
 31
0.0
  0
LINE
  8
0
 62
     0
 10
86.8204
 20
12.0826
 30
0.0
 11
86.8204
 21
15.3128
 31
0.0
  0
LINE
  8
0
 62
     0
 10
86.8204
 20
15.3128
 30
0.0
 11
85.0953
 21
15.3128
 31
0.0
  0
LINE
  8
0
 62
     0
 10
85.0953
 20
15.3128
 30
0.0
 11
85.0953
 21
16.2333
 31
0.0
  0
LINE
  8
0
 62
     0
 10
85.0953
 20
16.2333
 30
0.0
 11
81.7947
 21
16.2333
 31
0.0
  0
LINE
  8
0
 62
     0
 10
81.7947
 20
16.2333
 30
0.0
 11
81.7947
 21
15.3128
 31
0.0
  0
LINE
  8
0
 62
     0
 10
81.7947
 20
15.3128
 30
0.0
 11
80.071
 21
15.3128
 31
0.0
  0
LINE
  8
0
 62
     0
 10
80.071
 20
15.3128
 30
0.0
 11
80.071
 21
12.0826
 31
0.0
  0
LINE
  8
0
 62
     0
 10
80.071
 20
12.0826
 30
0.0
 11
79.2455
 21
12.0826
 31
0.0
  0
LINE
  8
0
 62
     0
 10
79.2455
 20
12.0826
 30
0.0
 11
79.2455
 21
9.28247
 31
0.0
  0
LINE
  8
0
 62
     0
 10
79.2455
 20
9.28247
 30
0.0
 11
80.071
 21
9.28247
 31
0.0
  0
LINE
  8
0
 62
     0
 10
80.071
 20
9.28247
 30
0.0
 11
80.071
 21
3.01239
 31
0.0
  0
LINE
  8
0
 62
     0
 10
80.071
 20
3.01239
 30
0.0
 11
81.7947
 21
3.01239
 31
0.0
  0
LINE
  8
0
 62
     0
 10
81.7947
 20
3.01239
 30
0.0
 11
81.7947
 21
2.03261
 31
0.0
  0
LINE
  8
0
 62
     0
 10
81.7947
 20
2.03261
 30
0.0
 11
85.0953
 21
2.03261
 31
0.0
  0
LINE
  8
0
 62
     0
 10
85.0953
 20
2.03261
 30
0.0
 11
85.0953
 21
3.01239
 31
0.0
  0
LINE
  8
0
 62
     0
 10
85.0953
 20
3.01239
 30
0.0
 11
86.8204
 21
3.01239
 31
0.0
  0
LINE
  8
0
 62
     0
 10
86.8204
 20
3.01239
 30
0.0
 11
86.8204
 21
7.48273
 31
0.0
  0
LINE
  8
0
 62
     0
 10
86.8204
 20
7.48273
 30
0.0
 11
88.3461
 21
7.48273
 31
0.0
  0
LINE
  8
0
 62
     0
 10
88.3461
 20
7.48273
 30
0.0
 11
88.3461
 21
2.78226
 31
0.0
  0
LINE
  8
0
 62
     0
 10
88.3461
 20
2.78226
 30
0.0
 11
102.345
 21
2.78226
 31
0.0
  0
LINE
  8
0
 62
     0
 10
102.345
 20
2.78226
 30
0.0
 11
102.345
 21
7.48273
 31
0.0
  0
LINE
  8
0
 62
     0
 10
102.345
 20
7.48273
 30
0.0
 11
103.871
 21
7.48273
 31
0.0
  0
LINE
  8
0
 62
     0
 10
103.871
 20
7.48273
 30
0.0
 11
103.871
 21
3.01239
 31
0.0
  0
LINE
  8
0
 62
     0
 10
103.871
 20
3.01239
 30
0.0
 11
105.595
 21
3.01239
 31
0.0
  0
LINE
  8
0
 62
     0
 10
105.595
 20
3.01239
 30
0.0
 11
105.595
 21
2.03261
 31
0.0
  0
LINE
  8
0
 62
     0
 10
105.595
 20
2.03261
 30
0.0
 11
108.895
 21
2.03261
 31
0.0
  0
LINE
  8
0
 62
     0
 10
108.895
 20
2.03261
 30
0.0
 11
108.895
 21
3.01239
 31
0.0
  0
LINE
  8
0
 62
     0
 10
108.895
 20
3.01239
 30
0.0
 11
110.621
 21
3.01239
 31
0.0
  0
LINE
  8
0
 62
     0
 10
110.621
 20
3.01239
 30
0.0
 11
110.621
 21
9.28247
 31
0.0
  0
LINE
  8
0
 62
     0
 10
110.621
 20
9.28247
 30
0.0
 11
111.446
 21
9.28247
 31
0.0
  0
LINE
  8
0
 62
     0
 10
111.446
 20
9.28247
 30
0.0
 11
111.446
 21
12.0826
 31
0.0
  0
LINE
  8
0
 62
     0
 10
111.446
 20
12.0826
 30
0.0
 11
110.621
 21
12.0826
 31
0.0
  0
LINE
  8
0
 62
     0
 10
110.621
 20
12.0826
 30
0.0
 11
110.621
 21
15.3128
 31
0.0
  0
LINE
  8
0
 62
     0
 10
110.621
 20
15.3128
 30
0.0
 11
108.895
 21
15.3128
 31
0.0
  0
LINE
  8
0
 62
     0
 10
108.895
 20
15.3128
 30
0.0
 11
108.895
 21
16.2333
 31
0.0
  0
LINE
  8
0
 62
     0
 10
108.895
 20
16.2333
 30
0.0
 11
105.595
 21
16.2333
 31
0.0
  0
LINE
  8
0
 62
     0
 10
105.595
 20
16.2333
 30
0.0
 11
105.595
 21
15.3128
 31
0.0
  0
LINE
  8
0
 62
     0
 10
105.595
 20
15.3128
 30
0.0
 11
103.871
 21
15.3128
 31
0.0
  0
LINE
  8
0
 62
     0
 10
103.871
 20
15.3128
 30
0.0
 11
103.871
 21
12.0826
 31
0.0
  0
LINE
  8
0
 62
     0
 10
103.871
 20
12.0826
 30
0.0
 11
102.345
 21
12.0826
 31
0.0
  0
LINE
  8
0
 62
     0
 10
102.345
 20
12.0826
 30
0.0
 11
102.345
 21
16.7817
 31
0.0
  0
LINE
  8
0
 62
     0
 10
102.345
 20
16.7817
 30
0.0
 11
88.3461
 21
16.7817
 31
0.0
  0
LINE
  8
0
 62
     0
 10
59.7711
 20
16.7817
 30
0.0
 11
73.7704
 21
16.7817
 31
0.0
  0
LINE
  8
0
 62
     0
 10
73.7704
 20
16.7817
 30
0.0
 11
73.7704
 21
2.78226
 31
0.0
  0
LINE
  8
0
 62
     0
 10
73.7704
 20
2.78226
 30
0.0
 11
59.7711
 21
2.78226
 31
0.0
  0
LINE
  8
0
 62
     0
 10
59.7711
 20
2.78226
 30
0.0
 11
59.7711
 21
16.7817
 31
0.0
  0
LINE
  8
0
 62
     0
 10
40.7211
 20
16.7817
 30
0.0
 11
54.7204
 21
16.7817
 31
0.0
  0
LINE
  8
0
 62
     0
 10
54.7204
 20
16.7817
 30
0.0
 11
54.7204
 21
2.78226
 31
0.0
  0
LINE
  8
0
 62
     0
 10
54.7204
 20
2.78226
 30
0.0
 11
40.7211
 21
2.78226
 31
0.0
  0
LINE
  8
0
 62
     0
 10
40.7211
 20
2.78226
 30
0.0
 11
40.7211
 21
16.7817
 31
0.0
  0
LINE
  8
0
 62
     0
 10
21.671
 20
16.7817
 30
0.0
 11
35.6704
 21
16.7817
 31
0.0
  0
LINE
  8
0
 62
     0
 10
35.6704
 20
16.7817
 30
0.0
 11
35.6704
 21
2.78226
 31
0.0
  0
LINE
  8
0
 62
     0
 10
35.6704
 20
2.78226
 30
0.0
 11
21.671
 21
2.78226
 31
0.0
  0
LINE
  8
0
 62
     0
 10
21.671
 20
2.78226
 30
0.0
 11
21.671
 21
16.7817
 31
0.0
  0
LINE
  8
0
 62
     0
 10
2.62103
 20
16.7817
 30
0.0
 11
16.6205
 21
16.7817
 31
0.0
  0
LINE
  8
0
 62
     0
 10
16.6205
 20
16.7817
 30
0.0
 11
16.6205
 21
2.78226
 31
0.0
  0
LINE
  8
0
 62
     0
 10
16.6205
 20
2.78226
 30
0.0
 11
2.62103
 21
2.78226
 31
0.0
  0
LINE
  8
0
 62
     0
 10
2.62103
 20
2.78226
 30
0.0
 11
2.62103
 21
16.7817
 31
0.0
  0
LINE
  8
0
 62
     0
 10
97.8697
 20
35.8316
 30
0.0
 11
111.869
 21
35.8316
 31
0.0
  0
LINE
  8
0
 62
     0
 10
111.869
 20
35.8316
 30
0.0
 11
111.869
 21
21.8323
 31
0.0
  0
LINE
  8
0
 62
     0
 10
111.869
 20
21.8323
 30
0.0
 11
97.8697
 21
21.8323
 31
0.0
  0
LINE
  8
0
 62
     0
 10
97.8697
 20
21.8323
 30
0.0
 11
97.8697
 21
35.8316
 31
0.0
  0
LINE
  8
0
 62
     0
 10
78.8211
 20
35.8316
 30
0.0
 11
92.8204
 21
35.8316
 31
0.0
  0
LINE
  8
0
 62
     0
 10
92.8204
 20
35.8316
 30
0.0
 11
92.8204
 21
21.8323
 31
0.0
  0
LINE
  8
0
 62
     0
 10
92.8204
 20
21.8323
 30
0.0
 11
78.8211
 21
21.8323
 31
0.0
  0
LINE
  8
0
 62
     0
 10
78.8211
 20
21.8323
 30
0.0
 11
78.8211
 21
35.8316
 31
0.0
  0
LINE
  8
0
 62
     0
 10
59.7711
 20
35.8316
 30
0.0
 11
73.7704
 21
35.8316
 31
0.0
  0
LINE
  8
0
 62
     0
 10
73.7704
 20
35.8316
 30
0.0
 11
73.7704
 21
21.8323
 31
0.0
  0
LINE
  8
0
 62
     0
 10
73.7704
 20
21.8323
 30
0.0
 11
59.7711
 21
21.8323
 31
0.0
  0
LINE
  8
0
 62
     0
 10
59.7711
 20
21.8323
 30
0.0
 11
59.7711
 21
35.8316
 31
0.0
  0
LINE
  8
0
 62
     0
 10
40.7211
 20
35.8316
 30
0.0
 11
54.7204
 21
35.8316
 31
0.0
  0
LINE
  8
0
 62
     0
 10
54.7204
 20
35.8316
 30
0.0
 11
54.7204
 21
21.8323
 31
0.0
  0
LINE
  8
0
 62
     0
 10
54.7204
 20
21.8323
 30
0.0
 11
40.7211
 21
21.8323
 31
0.0
  0
LINE
  8
0
 62
     0
 10
40.7211
 20
21.8323
 30
0.0
 11
40.7211
 21
35.8316
 31
0.0
  0
LINE
  8
0
 62
     0
 10
21.671
 20
35.8316
 30
0.0
 11
35.6704
 21
35.8316
 31
0.0
  0
LINE
  8
0
 62
     0
 10
35.6704
 20
35.8316
 30
0.0
 11
35.6704
 21
21.8323
 31
0.0
  0
LINE
  8
0
 62
     0
 10
35.6704
 20
21.8323
 30
0.0
 11
21.671
 21
21.8323
 31
0.0
  0
LINE
  8
0
 62
     0
 10
21.671
 20
21.8323
 30
0.0
 11
21.671
 21
35.8316
 31
0.0
  0
LINE
  8
0
 62
     0
 10
2.62103
 20
35.8316
 30
0.0
 11
16.6205
 21
35.8316
 31
0.0
  0
LINE
  8
0
 62
     0
 10
16.6205
 20
35.8316
 30
0.0
 11
16.6205
 21
21.8323
 31
0.0
  0
LINE
  8
0
 62
     0
 10
16.6205
 20
21.8323
 30
0.0
 11
2.62103
 21
21.8323
 31
0.0
  0
LINE
  8
0
 62
     0
 10
2.62103
 20
21.8323
 30
0.0
 11
2.62103
 21
35.8316
 31
0.0
  0
LINE
  8
0
 62
     0
 10
97.8697
 20
54.8816
 30
0.0
 11
111.869
 21
54.8816
 31
0.0
  0
LINE
  8
0
 62
     0
 10
111.869
 20
54.8816
 30
0.0
 11
111.869
 21
40.8824
 31
0.0
  0
LINE
  8
0
 62
     0
 10
111.869
 20
40.8824
 30
0.0
 11
97.8697
 21
40.8824
 31
0.0
  0
LINE
  8
0
 62
     0
 10
97.8697
 20
40.8824
 30
0.0
 11
97.8697
 21
54.8816
 31
0.0
  0
LINE
  8
0
 62
     0
 10
78.8211
 20
54.8816
 30
0.0
 11
92.8204
 21
54.8816
 31
0.0
  0
LINE
  8
0
 62
     0
 10
92.8204
 20
54.8816
 30
0.0
 11
92.8204
 21
40.8824
 31
0.0
  0
LINE
  8
0
 62
     0
 10
92.8204
 20
40.8824
 30
0.0
 11
78.8211
 21
40.8824
 31
0.0
  0
LINE
  8
0
 62
     0
 10
78.8211
 20
40.8824
 30
0.0
 11
78.8211
 21
54.8816
 31
0.0
  0
LINE
  8
0
 62
     0
 10
59.7711
 20
54.8816
 30
0.0
 11
73.7704
 21
54.8816
 31
0.0
  0
LINE
  8
0
 62
     0
 10
73.7704
 20
54.8816
 30
0.0
 11
73.7704
 21
40.8824
 31
0.0
  0
LINE
  8
0
 62
     0
 10
73.7704
 20
40.8824
 30
0.0
 11
59.7711
 21
40.8824
 31
0.0
  0
LINE
  8
0
 62
     0
 10
59.7711
 20
40.8824
 30
0.0
 11
59.7711
 21
54.8816
 31
0.0
  0
LINE
  8
0
 62
     0
 10
40.7211
 20
54.8816
 30
0.0
 11
54.7204
 21
54.8816
 31
0.0
  0
LINE
  8
0
 62
     0
 10
54.7204
 20
54.8816
 30
0.0
 11
54.7204
 21
40.8824
 31
0.0
  0
LINE
  8
0
 62
     0
 10
54.7204
 20
40.8824
 30
0.0
 11
40.7211
 21
40.8824
 31
0.0
  0
LINE
  8
0
 62
     0
 10
40.7211
 20
40.8824
 30
0.0
 11
40.7211
 21
54.8816
 31
0.0
  0
LINE
  8
0
 62
     0
 10
21.671
 20
54.8816
 30
0.0
 11
35.6704
 21
54.8816
 31
0.0
  0
LINE
  8
0
 62
     0
 10
35.6704
 20
54.8816
 30
0.0
 11
35.6704
 21
40.8824
 31
0.0
  0
LINE
  8
0
 62
     0
 10
35.6704
 20
40.8824
 30
0.0
 11
21.671
 21
40.8824
 31
0.0
  0
LINE
  8
0
 62
     0
 10
21.671
 20
40.8824
 30
0.0
 11
21.671
 21
54.8816
 31
0.0
  0
LINE
  8
0
 62
     0
 10
2.62103
 20
54.8816
 30
0.0
 11
16.6205
 21
54.8816
 31
0.0
  0
LINE
  8
0
 62
     0
 10
16.6205
 20
54.8816
 30
0.0
 11
16.6205
 21
40.8824
 31
0.0
  0
LINE
  8
0
 62
     0
 10
16.6205
 20
40.8824
 30
0.0
 11
2.62103
 21
40.8824
 31
0.0
  0
LINE
  8
0
 62
     0
 10
2.62103
 20
40.8824
 30
0.0
 11
2.62103
 21
54.8816
 31
0.0
  0
LINE
  8
0
 62
     0
 10
97.8697
 20
73.9316
 30
0.0
 11
111.869
 21
73.9316
 31
0.0
  0
LINE
  8
0
 62
     0
 10
111.869
 20
73.9316
 30
0.0
 11
111.869
 21
59.9324
 31
0.0
  0
LINE
  8
0
 62
     0
 10
111.869
 20
59.9324
 30
0.0
 11
97.8697
 21
59.9324
 31
0.0
  0
LINE
  8
0
 62
     0
 10
97.8697
 20
59.9324
 30
0.0
 11
97.8697
 21
73.9316
 31
0.0
  0
LINE
  8
0
 62
     0
 10
78.8211
 20
73.9316
 30
0.0
 11
92.8204
 21
73.9316
 31
0.0
  0
LINE
  8
0
 62
     0
 10
92.8204
 20
73.9316
 30
0.0
 11
92.8204
 21
59.9324
 31
0.0
  0
LINE
  8
0
 62
     0
 10
92.8204
 20
59.9324
 30
0.0
 11
78.8211
 21
59.9324
 31
0.0
  0
LINE
  8
0
 62
     0
 10
78.8211
 20
59.9324
 30
0.0
 11
78.8211
 21
73.9316
 31
0.0
  0
LINE
  8
0
 62
     0
 10
59.7711
 20
73.9316
 30
0.0
 11
73.7704
 21
73.9316
 31
0.0
  0
LINE
  8
0
 62
     0
 10
73.7704
 20
73.9316
 30
0.0
 11
73.7704
 21
59.9324
 31
0.0
  0
LINE
  8
0
 62
     0
 10
73.7704
 20
59.9324
 30
0.0
 11
59.7711
 21
59.9324
 31
0.0
  0
LINE
  8
0
 62
     0
 10
59.7711
 20
59.9324
 30
0.0
 11
59.7711
 21
73.9316
 31
0.0
  0
LINE
  8
0
 62
     0
 10
40.7211
 20
73.9316
 30
0.0
 11
54.7204
 21
73.9316
 31
0.0
  0
LINE
  8
0
 62
     0
 10
54.7204
 20
73.9316
 30
0.0
 11
54.7204
 21
59.9324
 31
0.0
  0
LINE
  8
0
 62
     0
 10
54.7204
 20
59.9324
 30
0.0
 11
40.7211
 21
59.9324
 31
0.0
  0
LINE
  8
0
 62
     0
 10
40.7211
 20
59.9324
 30
0.0
 11
40.7211
 21
73.9316
 31
0.0
  0
LINE
  8
0
 62
     0
 10
21.671
 20
73.9316
 30
0.0
 11
35.6704
 21
73.9316
 31
0.0
  0
LINE
  8
0
 62
     0
 10
35.6704
 20
73.9316
 30
0.0
 11
35.6704
 21
59.9324
 31
0.0
  0
LINE
  8
0
 62
     0
 10
35.6704
 20
59.9324
 30
0.0
 11
21.671
 21
59.9324
 31
0.0
  0
LINE
  8
0
 62
     0
 10
21.671
 20
59.9324
 30
0.0
 11
21.671
 21
73.9316
 31
0.0
  0
LINE
  8
0
 62
     0
 10
2.62103
 20
73.9316
 30
0.0
 11
16.6205
 21
73.9316
 31
0.0
  0
LINE
  8
0
 62
     0
 10
16.6205
 20
73.9316
 30
0.0
 11
16.6205
 21
59.9324
 31
0.0
  0
LINE
  8
0
 62
     0
 10
16.6205
 20
59.9324
 30
0.0
 11
2.62103
 21
59.9324
 31
0.0
  0
LINE
  8
0
 62
     0
 10
2.62103
 20
59.9324
 30
0.0
 11
2.62103
 21
73.9316
 31
0.0
  0
ENDSEC
  0
EOF
